<svg width="48" height="55" viewBox="0 0 48 55" fill="none" xmlns="http://www.w3.org/2000/svg">
<path d="M35.9688 26.6406C34.1426 26.6406 32.4238 26.9271 30.8125 27.5C29.2012 28.0729 27.7062 28.8607 26.3276 29.8633L21.252 26.5332L3.52734 53.4155C3.16927 53.9347 2.68587 54.1943 2.07715 54.1943C1.75488 54.1943 1.44157 54.0959 1.13721 53.8989C0.635905 53.5588 0.385254 53.0843 0.385254 52.4756C0.385254 52.1354 0.474772 51.8221 0.653809 51.5356L18.4053 24.6265L9.62354 18.8525L9.08643 19.6851C8.74626 20.1864 8.32552 20.5623 7.82422 20.813C7.32292 21.0636 6.77686 21.1979 6.18604 21.2158C5.5057 21.2158 4.88802 21.0278 4.33301 20.6519C3.83171 20.3117 3.44678 19.891 3.17822 19.3896C2.90967 18.8883 2.77539 18.3423 2.77539 17.7515C2.77539 17.089 2.96338 16.4714 3.33936 15.8984L12.8193 1.53076C13.1595 1.02946 13.5802 0.653483 14.0815 0.402832C14.5828 0.152181 15.12 0.0179036 15.6929 0C16.3553 0 16.9819 0.187988 17.5728 0.563965C18.0741 0.904134 18.459 1.32487 18.7275 1.82617C18.9961 2.32747 19.1304 2.87354 19.1304 3.46436C19.1304 4.14469 18.9424 4.76237 18.5664 5.31738L18.0024 6.1499L38.0903 19.3896L38.6274 18.584C38.9676 18.0827 39.3883 17.6978 39.8896 17.4292C40.3909 17.1606 40.937 17.0264 41.5278 17.0264C42.1903 17.0264 42.8169 17.2144 43.4077 17.5903C43.909 17.9305 44.285 18.3512 44.5356 18.8525C44.7863 19.3538 44.9206 19.8999 44.9385 20.4907C44.9385 21.1532 44.7505 21.7798 44.3745 22.3706L40.9907 27.5C40.1851 27.2493 39.3704 27.0435 38.5469 26.8823C37.7233 26.7212 36.8639 26.6406 35.9688 26.6406ZM44.4819 34.4556C45.6099 35.6014 46.4782 36.8994 47.0869 38.3496C47.6956 39.7998 48 41.3395 48 42.9688C48 44.598 47.6956 46.1377 47.0869 47.5879C46.4782 49.0381 45.6099 50.3271 44.4819 51.4551C43.3361 52.6009 42.0381 53.4782 40.5879 54.0869C39.1377 54.6956 37.598 55 35.9688 55C34.3395 55 32.7998 54.6956 31.3496 54.0869C29.8994 53.4782 28.6104 52.6099 27.4824 51.4819C26.3366 50.3361 25.4593 49.0381 24.8506 47.5879C24.2419 46.1377 23.9375 44.598 23.9375 42.9688C23.9375 41.3395 24.2419 39.7998 24.8506 38.3496C25.4593 36.8994 26.3276 35.6104 27.4556 34.4824C28.6014 33.3366 29.8994 32.4593 31.3496 31.8506C32.7998 31.2419 34.3395 30.9375 35.9688 30.9375C37.598 30.9375 39.1377 31.2419 40.5879 31.8506C42.0381 32.4593 43.3361 33.3276 44.4819 34.4556ZM27.375 42.9688C27.375 44.1504 27.5988 45.2604 28.0464 46.2988C28.494 47.3372 29.1027 48.2503 29.8726 49.0381C30.6424 49.8258 31.5555 50.4435 32.6118 50.8911C33.6681 51.3387 34.7871 51.5625 35.9688 51.5625C36.846 51.5625 37.6785 51.4372 38.4663 51.1865C39.2541 50.9359 39.9971 50.5868 40.6953 50.1392L28.7983 38.2422C28.3507 38.9225 28.0016 39.6566 27.751 40.4443C27.5003 41.2321 27.375 42.0736 27.375 42.9688ZM43.1392 47.6953C43.5868 47.015 43.9359 46.2809 44.1865 45.4932C44.4372 44.7054 44.5625 43.8639 44.5625 42.9688C44.5625 41.7871 44.3387 40.6771 43.8911 39.6387C43.4435 38.6003 42.8258 37.6961 42.0381 36.9263C41.2503 36.1564 40.3372 35.5387 39.2988 35.0732C38.2604 34.6077 37.1504 34.375 35.9688 34.375C35.0915 34.375 34.259 34.5003 33.4712 34.751C32.6834 35.0016 31.9404 35.3507 31.2422 35.7983L43.1392 47.6953Z" fill="#00AC57"/>
</svg>
