<svg width="55" height="55" viewBox="0 0 55 55" fill="none" xmlns="http://www.w3.org/2000/svg">
<path d="M42.9688 26.6406C41.1426 26.6406 39.4238 26.9271 37.8125 27.5C36.2012 28.0729 34.7062 28.8607 33.3276 29.8633L28.252 26.5332L10.5273 53.4155C10.1693 53.9347 9.68587 54.1943 9.07715 54.1943C8.75488 54.1943 8.44157 54.0959 8.13721 53.8989C7.6359 53.5588 7.38525 53.0843 7.38525 52.4756C7.38525 52.1354 7.47477 51.8221 7.65381 51.5356L25.4053 24.6265L16.6235 18.8525L16.0864 19.6851C15.7463 20.1864 15.3255 20.5623 14.8242 20.813C14.3229 21.0636 13.7769 21.1979 13.186 21.2158C12.5057 21.2158 11.888 21.0278 11.333 20.6519C10.8317 20.3117 10.4468 19.891 10.1782 19.3896C9.90967 18.8883 9.77539 18.3423 9.77539 17.7515C9.77539 17.089 9.96338 16.4714 10.3394 15.8984L19.8193 1.53076C20.1595 1.02946 20.5802 0.653483 21.0815 0.402832C21.5828 0.152181 22.12 0.0179036 22.6929 0C23.3553 0 23.9819 0.187988 24.5728 0.563965C25.0741 0.904134 25.459 1.32487 25.7275 1.82617C25.9961 2.32747 26.1304 2.87354 26.1304 3.46436C26.1304 4.14469 25.9424 4.76237 25.5664 5.31738L25.0024 6.1499L45.0903 19.3896L45.6274 18.584C45.9676 18.0827 46.3883 17.6978 46.8896 17.4292C47.3909 17.1606 47.937 17.0264 48.5278 17.0264C49.1903 17.0264 49.8169 17.2144 50.4077 17.5903C50.909 17.9305 51.285 18.3512 51.5356 18.8525C51.7863 19.3538 51.9206 19.8999 51.9385 20.4907C51.9385 21.1532 51.7505 21.7798 51.3745 22.3706L47.9907 27.5C47.1851 27.2493 46.3704 27.0435 45.5469 26.8823C44.7233 26.7212 43.8639 26.6406 42.9688 26.6406ZM51.4819 34.4556C52.6099 35.6014 53.4782 36.8994 54.0869 38.3496C54.6956 39.7998 55 41.3395 55 42.9688C55 44.598 54.6956 46.1377 54.0869 47.5879C53.4782 49.0381 52.6099 50.3271 51.4819 51.4551C50.3361 52.6009 49.0381 53.4782 47.5879 54.0869C46.1377 54.6956 44.598 55 42.9688 55C41.3395 55 39.7998 54.6956 38.3496 54.0869C36.8994 53.4782 35.6104 52.6099 34.4824 51.4819C33.3366 50.3361 32.4593 49.0381 31.8506 47.5879C31.2419 46.1377 30.9375 44.598 30.9375 42.9688C30.9375 41.3395 31.2419 39.7998 31.8506 38.3496C32.4593 36.8994 33.3276 35.6104 34.4556 34.4824C35.6014 33.3366 36.8994 32.4593 38.3496 31.8506C39.7998 31.2419 41.3395 30.9375 42.9688 30.9375C44.598 30.9375 46.1377 31.2419 47.5879 31.8506C49.0381 32.4593 50.3361 33.3276 51.4819 34.4556ZM34.375 42.9688C34.375 44.1504 34.5988 45.2604 35.0464 46.2988C35.494 47.3372 36.1027 48.2503 36.8726 49.0381C37.6424 49.8258 38.5555 50.4435 39.6118 50.8911C40.6681 51.3387 41.7871 51.5625 42.9688 51.5625C43.846 51.5625 44.6785 51.4372 45.4663 51.1865C46.2541 50.9359 46.9971 50.5868 47.6953 50.1392L35.7983 38.2422C35.3507 38.9225 35.0016 39.6566 34.751 40.4443C34.5003 41.2321 34.375 42.0736 34.375 42.9688ZM50.1392 47.6953C50.5868 47.015 50.9359 46.2809 51.1865 45.4932C51.4372 44.7054 51.5625 43.8639 51.5625 42.9688C51.5625 41.7871 51.3387 40.6771 50.8911 39.6387C50.4435 38.6003 49.8258 37.6961 49.0381 36.9263C48.2503 36.1564 47.3372 35.5387 46.2988 35.0732C45.2604 34.6077 44.1504 34.375 42.9688 34.375C42.0915 34.375 41.259 34.5003 40.4712 34.751C39.6834 35.0016 38.9404 35.3507 38.2422 35.7983L50.1392 47.6953Z" fill="#00AC57"/>
</svg>
