<svg width="54" height="54" viewBox="0 0 54 54" fill="none" xmlns="http://www.w3.org/2000/svg">
<path opacity="0.97" d="M43.7794 46.1666C45.562 46.1666 47.007 44.7573 47.007 43.0188C47.007 41.2804 45.562 39.8711 43.7794 39.8711C41.9968 39.8711 40.5518 41.2804 40.5518 43.0188C40.5518 44.7573 41.9968 46.1666 43.7794 46.1666Z" stroke="#00AC57" stroke-width="2" stroke-linecap="round" stroke-linejoin="round"/>
<path opacity="0.97" d="M29.4638 37.2341C24.381 39.2512 18.5918 37.5266 15.4013 33.0446C13.8501 30.8599 13.0623 28.2248 13.1599 25.5472C13.2576 22.8695 14.2351 20.2988 15.9413 18.2328C17.6322 16.1795 19.9643 14.7541 22.5629 14.1859C25.1615 13.6177 27.8756 13.9395 30.2693 15.0997C35.1934 17.4892 37.8878 22.9488 36.8145 28.3623" stroke="#00AC57" stroke-width="2" stroke-linecap="round" stroke-linejoin="round"/>
<path opacity="0.97" d="M36.0967 44.5065C26.9032 49.9842 15.0975 47.9153 8.30473 39.6364C1.51086 31.3587 1.76623 19.3504 8.90323 11.3685C16.0425 3.38553 27.9236 1.82178 36.8775 7.68303C45.8302 13.5465 49.1715 25.0812 44.7424 34.8372M48.339 38.373C51.0637 40.7018 51.399 44.754 49.095 47.49C46.791 50.226 42.6926 50.6423 39.87 48.4283" stroke="#00AC57" stroke-width="2" stroke-linecap="round" stroke-linejoin="round"/>
<path d="M29.4639 37.2484C28.9724 36.1746 28.7953 34.9835 28.9529 33.8132C29.1106 32.6428 29.5967 31.5411 30.3549 30.6357C31.9051 28.767 34.4026 27.8929 36.8281 28.371" stroke="#00AC57" stroke-width="2" stroke-linecap="round" stroke-linejoin="round"/>
<path opacity="0.97" d="M36.9718 28.4062L48.3939 38.4165M29.3994 37.1284L39.7292 48.2501" stroke="#00AC57" stroke-width="2" stroke-linecap="round" stroke-linejoin="round"/>
</svg>
