<svg width="24" height="24" viewBox="0 0 24 24" fill="none" xmlns="http://www.w3.org/2000/svg">
<g clip-path="url(#clip0_653_1924)">
<rect width="24" height="24" rx="2.4" fill="#1E2CA8"/>
<path d="M4.53005 7.02765C3.88205 7.02765 3.34925 6.84045 2.93165 6.46605C2.52845 6.07725 2.32685 5.60205 2.32685 5.04045C2.32685 4.46445 2.52845 3.98925 2.93165 3.61485C3.34925 3.22605 3.88205 3.03165 4.53005 3.03165C5.16365 3.03165 5.68205 3.22605 6.08525 3.61485C6.50285 3.98925 6.71165 4.46445 6.71165 5.04045C6.71165 5.60205 6.50285 6.07725 6.08525 6.46605C5.68205 6.84045 5.16365 7.02765 4.53005 7.02765ZM6.36605 8.28045V20.3333H2.67245V8.28045H6.36605ZM16.3868 8.15085C17.798 8.15085 18.9212 8.61165 19.7564 9.53325C20.606 10.4405 21.0308 11.6933 21.0308 13.2917V20.3333H17.3588V13.7885C17.3588 12.9821 17.15 12.3557 16.7324 11.9093C16.3148 11.4629 15.7532 11.2397 15.0476 11.2397C14.342 11.2397 13.7804 11.4629 13.3628 11.9093C12.9452 12.3557 12.7364 12.9821 12.7364 13.7885V20.3333H9.04277V8.28045H12.7364V9.87885C13.1108 9.34605 13.6148 8.92845 14.2484 8.62605C14.882 8.30925 15.5948 8.15085 16.3868 8.15085Z" fill="white"/>
<a href="https://www.linkedin.com/in/pharmacistraymondokokoh?utm_source=share&#38;utm_campaign=share_via&#38;utm_content=profile&#38;utm_medium=android_app">
<rect fill="black" fill-opacity="0" y="-1.2" width="20.9287" height="32.4"/>
</a>
</g>
<defs>
<clipPath id="clip0_653_1924">
<rect width="24" height="24" rx="2.4" fill="white"/>
</clipPath>
</defs>
</svg>
