<svg width="46" height="46" viewBox="0 0 46 46" fill="none" xmlns="http://www.w3.org/2000/svg">
<path d="M21.5625 8.625C21.1813 8.625 20.8156 8.77645 20.546 9.04603C20.2765 9.31562 20.125 9.68125 20.125 10.0625C20.125 10.4437 20.2765 10.8094 20.546 11.079C20.8156 11.3485 21.1813 11.5 21.5625 11.5H24.4375C24.8187 11.5 25.1844 11.3485 25.454 11.079C25.7236 10.8094 25.875 10.4437 25.875 10.0625C25.875 9.68125 25.7236 9.31562 25.454 9.04603C25.1844 8.77645 24.8187 8.625 24.4375 8.625H21.5625ZM18.6875 29.4688C18.6875 30.0406 18.4603 30.5891 18.0559 30.9934C17.6516 31.3978 17.1031 31.625 16.5312 31.625C15.9594 31.625 15.4109 31.3978 15.0066 30.9934C14.6022 30.5891 14.375 30.0406 14.375 29.4688C14.375 28.8969 14.6022 28.3484 15.0066 27.9441C15.4109 27.5397 15.9594 27.3125 16.5312 27.3125C17.1031 27.3125 17.6516 27.5397 18.0559 27.9441C18.4603 28.3484 18.6875 28.8969 18.6875 29.4688ZM29.4688 31.625C30.0406 31.625 30.5891 31.3978 30.9934 30.9934C31.3978 30.5891 31.625 30.0406 31.625 29.4688C31.625 28.8969 31.3978 28.3484 30.9934 27.9441C30.5891 27.5397 30.0406 27.3125 29.4688 27.3125C28.8969 27.3125 28.3484 27.5397 27.9441 27.9441C27.5397 28.3484 27.3125 28.8969 27.3125 29.4688C27.3125 30.0406 27.5397 30.5891 27.9441 30.9934C28.3484 31.3978 28.8969 31.625 29.4688 31.625ZM5.75 11.2125C5.75 9.00126 6.62841 6.88058 8.192 5.317C9.75558 3.75341 11.8763 2.875 14.0875 2.875H31.9125C34.1237 2.875 36.2444 3.75341 37.808 5.317C39.3716 6.88058 40.25 9.00126 40.25 11.2125V17.25H41.6875C42.0687 17.25 42.4344 17.4015 42.704 17.671C42.9735 17.9406 43.125 18.3063 43.125 18.6875C43.125 19.0687 42.9735 19.4344 42.704 19.704C42.4344 19.9735 42.0687 20.125 41.6875 20.125H40.25V39.3875C40.25 40.3787 39.8562 41.3294 39.1553 42.0303C38.4544 42.7312 37.5037 43.125 36.5125 43.125H32.4875C31.4963 43.125 30.5456 42.7312 29.8447 42.0303C29.1438 41.3294 28.75 40.3787 28.75 39.3875V37.375H17.25V39.3875C17.25 40.3787 16.8562 41.3294 16.1553 42.0303C15.4544 42.7312 14.5037 43.125 13.5125 43.125H9.4875C8.49625 43.125 7.54561 42.7312 6.84469 42.0303C6.14377 41.3294 5.75 40.3787 5.75 39.3875V20.125H4.3125C3.93125 20.125 3.56562 19.9735 3.29603 19.704C3.02645 19.4344 2.875 19.0687 2.875 18.6875C2.875 18.3063 3.02645 17.9406 3.29603 17.671C3.56562 17.4015 3.93125 17.25 4.3125 17.25H5.75V11.2125ZM37.375 11.2125C37.375 9.76376 36.7995 8.37435 35.7751 7.34993C34.7507 6.32551 33.3612 5.75 31.9125 5.75H14.0875C12.6388 5.75 11.2493 6.32551 10.2249 7.34993C9.20051 8.37435 8.625 9.76376 8.625 11.2125V23H37.375V11.2125ZM31.625 37.375V39.3875C31.625 39.5008 31.6473 39.6129 31.6907 39.7176C31.734 39.8222 31.7975 39.9173 31.8776 39.9974C31.9577 40.0775 32.0528 40.141 32.1574 40.1843C32.2621 40.2277 32.3742 40.25 32.4875 40.25H36.5125C36.6258 40.25 36.7379 40.2277 36.8426 40.1843C36.9472 40.141 37.0423 40.0775 37.1224 39.9974C37.2025 39.9173 37.266 39.8222 37.3093 39.7176C37.3527 39.6129 37.375 39.5008 37.375 39.3875V37.375H31.625ZM8.625 37.375V39.3875C8.625 39.5008 8.64731 39.6129 8.69065 39.7176C8.734 39.8222 8.79753 39.9173 8.87762 39.9974C8.95771 40.0775 9.05279 40.141 9.15744 40.1843C9.26208 40.2277 9.37423 40.25 9.4875 40.25H13.5125C13.6258 40.25 13.7379 40.2277 13.8426 40.1843C13.9472 40.141 14.0423 40.0775 14.1224 39.9974C14.2025 39.9173 14.266 39.8222 14.3093 39.7176C14.3527 39.6129 14.375 39.5008 14.375 39.3875V37.375H8.625ZM8.625 34.5H37.375V25.875H8.625V34.5Z" fill="#10BA21"/>
</svg>
