<svg width="50" height="48" viewBox="0 0 50 48" fill="none" xmlns="http://www.w3.org/2000/svg">
<path opacity="0.97" d="M41.7794 43.1666C43.562 43.1666 45.007 41.7573 45.007 40.0189C45.007 38.2804 43.562 36.8711 41.7794 36.8711C39.9968 36.8711 38.5518 38.2804 38.5518 40.0189C38.5518 41.7573 39.9968 43.1666 41.7794 43.1666Z" stroke="#10BA21" stroke-width="2" stroke-linecap="round" stroke-linejoin="round"/>
<path opacity="0.97" d="M27.4633 34.2353C22.3805 36.2524 16.5913 34.5278 13.4008 30.0458C11.8496 27.861 11.0618 25.2259 11.1595 22.5483C11.2571 19.8707 12.2346 17.3 13.9408 15.234C15.6317 13.1806 17.9638 11.7553 20.5624 11.1871C23.161 10.6188 25.8751 10.9407 28.2688 12.1009C33.1929 14.4904 35.8873 19.95 34.814 25.3635" stroke="#10BA21" stroke-width="2" stroke-linecap="round" stroke-linejoin="round"/>
<path opacity="0.97" d="M34.0967 41.5073C24.9032 46.9849 13.0975 44.916 6.30473 36.6371C-0.489141 28.3594 -0.233766 16.3511 6.90323 8.36925C14.0425 0.386251 25.9236 -1.1775 34.8775 4.68375C43.8302 10.5473 47.1715 22.0819 42.7424 31.8379M46.339 35.3738C49.0637 37.7025 49.399 41.7548 47.095 44.4908C44.791 47.2268 40.6926 47.643 37.87 45.429" stroke="#10BA21" stroke-width="2" stroke-linecap="round" stroke-linejoin="round"/>
<path d="M27.4634 34.2499C26.9719 33.1761 26.7948 31.985 26.9525 30.8146C27.1101 29.6443 27.5962 28.5426 28.3544 27.6371C29.9046 25.7685 32.4021 24.8944 34.8276 25.3725" stroke="#10BA21" stroke-width="2" stroke-linecap="round" stroke-linejoin="round"/>
<path opacity="0.97" d="M34.9718 25.4062L46.3939 35.4165M27.3994 34.1284L37.7292 45.2501" stroke="#10BA21" stroke-width="2" stroke-linecap="round" stroke-linejoin="round"/>
</svg>
