<svg width="82" height="51" viewBox="0 0 82 51" fill="none" xmlns="http://www.w3.org/2000/svg">
<path fill-rule="evenodd" clip-rule="evenodd" d="M51.1875 4.25C50.9057 4.25 50.6355 4.36194 50.4362 4.5612C50.2369 4.76046 50.125 5.03071 50.125 5.3125V9.5625C50.125 9.84429 50.2369 10.1145 50.4362 10.3138C50.6355 10.5131 50.9057 10.625 51.1875 10.625H52.25V11.9776C51.9391 12.0875 51.67 12.2911 51.4797 12.5604C51.2894 12.8296 51.1873 13.1513 51.1875 13.481V41.4375C51.1875 42.8465 51.7472 44.1977 52.7435 45.194C53.7398 46.1903 55.091 46.75 56.5 46.75C57.909 46.75 59.2602 46.1903 60.2565 45.194C61.2528 44.1977 61.8125 42.8465 61.8125 41.4375V13.4799C61.8125 13.1504 61.7103 12.829 61.52 12.5599C61.3297 12.2909 61.0607 12.0874 60.75 11.9776V10.625H61.8125C62.0943 10.625 62.3645 10.5131 62.5638 10.3138C62.7631 10.1145 62.875 9.84429 62.875 9.5625V5.3125C62.875 5.03071 62.7631 4.76046 62.5638 4.5612C62.3645 4.36194 62.0943 4.25 61.8125 4.25H51.1875ZM53.3125 13.9209C53.6234 13.811 53.8925 13.6074 54.0828 13.3381C54.2731 13.0688 54.3752 12.7472 54.375 12.4174V10.625H58.625V12.4185C58.625 12.748 58.7272 13.0695 58.9175 13.3385C59.1078 13.6076 59.3768 13.811 59.6875 13.9209V19.125H53.3125V13.9209ZM59.6875 26.5466L54.3909 21.25H53.3125V22.4793L59.6875 28.8543V26.5466ZM57.3967 21.25L59.6875 23.5418V22.2966L58.6409 21.25H57.3967ZM59.6875 31.8591L53.3125 25.4841V27.7918L59.6875 34.1668V31.8591ZM59.6875 39.4793L53.3125 33.1043V30.7966L59.6875 37.1716V39.4793ZM59.5547 42.3512L53.3125 36.1091V38.4168L58.6686 43.7729C59.0798 43.3914 59.39 42.9027 59.5547 42.3512ZM56.5 44.625C55.6546 44.625 54.8439 44.2892 54.2461 43.6914C53.6483 43.0936 53.3125 42.2829 53.3125 41.4375V41.4216L56.5159 44.625H56.5ZM52.25 6.375V8.5H60.75V6.375H52.25Z" fill="#10BA21"/>
<path d="M11.6875 31.875C11.6875 31.5932 11.7994 31.323 11.9987 31.1237C12.198 30.9244 12.4682 30.8125 12.75 30.8125H27.625C27.9068 30.8125 28.177 30.9244 28.3763 31.1237C28.5756 31.323 28.6875 31.5932 28.6875 31.875C28.6875 32.1568 28.5756 32.427 28.3763 32.6263C28.177 32.8256 27.9068 32.9375 27.625 32.9375H12.75C12.4682 32.9375 12.198 32.8256 11.9987 32.6263C11.7994 32.427 11.6875 32.1568 11.6875 31.875ZM12.75 36.125C12.4682 36.125 12.198 36.2369 11.9987 36.4362C11.7994 36.6355 11.6875 36.9057 11.6875 37.1875C11.6875 37.4693 11.7994 37.7395 11.9987 37.9388C12.198 38.1381 12.4682 38.25 12.75 38.25H27.625C27.9068 38.25 28.177 38.1381 28.3763 37.9388C28.5756 37.7395 28.6875 37.4693 28.6875 37.1875C28.6875 36.9057 28.5756 36.6355 28.3763 36.4362C28.177 36.2369 27.9068 36.125 27.625 36.125H12.75ZM14.875 22.3125V19.125H17V22.3125H20.1875V24.4375H17V27.625H14.875V24.4375H11.6875V22.3125H14.875Z" fill="#10BA21"/>
<path fill-rule="evenodd" clip-rule="evenodd" d="M15.9375 6.375C15.0921 6.375 14.2814 6.71083 13.6836 7.3086C13.0858 7.90637 12.75 8.71712 12.75 9.5625H9.5625C8.71712 9.5625 7.90637 9.89832 7.3086 10.4961C6.71083 11.0939 6.375 11.9046 6.375 12.75V41.4375C6.375 42.2829 6.71083 43.0936 7.3086 43.6914C7.90637 44.2892 8.71712 44.625 9.5625 44.625H30.8125C31.6579 44.625 32.4686 44.2892 33.0664 43.6914C33.6642 43.0936 34 42.2829 34 41.4375V12.75C34 11.9046 33.6642 11.0939 33.0664 10.4961C32.4686 9.89832 31.6579 9.5625 30.8125 9.5625H27.625C27.625 8.71712 27.2892 7.90637 26.6914 7.3086C26.0936 6.71083 25.2829 6.375 24.4375 6.375H15.9375ZM24.4375 12.75C24.7193 12.75 24.9895 12.6381 25.1888 12.4388C25.3881 12.2395 25.5 11.9693 25.5 11.6875V9.5625C25.5 9.28071 25.3881 9.01046 25.1888 8.8112C24.9895 8.61194 24.7193 8.5 24.4375 8.5H15.9375C15.6557 8.5 15.3855 8.61194 15.1862 8.8112C14.9869 9.01046 14.875 9.28071 14.875 9.5625V11.6875C14.875 11.9693 14.9869 12.2395 15.1862 12.4388C15.3855 12.6381 15.6557 12.75 15.9375 12.75H24.4375ZM12.75 11.6875C12.75 12.5329 13.0858 13.3436 13.6836 13.9414C14.2814 14.5392 15.0921 14.875 15.9375 14.875H24.4375C25.2829 14.875 26.0936 14.5392 26.6914 13.9414C27.2892 13.3436 27.625 12.5329 27.625 11.6875H30.8125C31.0943 11.6875 31.3645 11.7994 31.5638 11.9987C31.7631 12.198 31.875 12.4682 31.875 12.75V41.4375C31.875 41.7193 31.7631 41.9895 31.5638 42.1888C31.3645 42.3881 31.0943 42.5 30.8125 42.5H9.5625C9.28071 42.5 9.01046 42.3881 8.8112 42.1888C8.61194 41.9895 8.5 41.7193 8.5 41.4375V12.75C8.5 12.4682 8.61194 12.198 8.8112 11.9987C9.01046 11.7994 9.28071 11.6875 9.5625 11.6875H12.75ZM38.25 18.0625C38.25 17.2171 38.5858 16.4064 39.1836 15.8086C39.7814 15.2108 40.5921 14.875 41.4375 14.875C42.2829 14.875 43.0936 15.2108 43.6914 15.8086C44.2892 16.4064 44.625 17.2171 44.625 18.0625V39.6344L41.4375 44.4157L38.25 39.6344V18.0625ZM41.4375 17C41.1557 17 40.8855 17.1119 40.6862 17.3112C40.4869 17.5105 40.375 17.7807 40.375 18.0625V20.1875H42.5V18.0625C42.5 17.7807 42.3881 17.5105 42.1888 17.3112C41.9895 17.1119 41.7193 17 41.4375 17ZM41.4375 40.5843L42.5 38.9906V22.3125H40.375V38.9906L41.4375 40.5843Z" fill="#10BA21"/>
</svg>
