<svg width="46" height="46" viewBox="0 0 46 46" fill="none" xmlns="http://www.w3.org/2000/svg">
<g clip-path="url(#clip0_39_76)">
<path d="M40.9688 6.0375C40.4745 5.71775 39.9093 5.52431 39.3227 5.47418C38.7362 5.42405 38.1463 5.51876 37.605 5.75L19.8662 12.7363C19.4463 12.9072 18.9972 12.995 18.5437 12.995H7.1875C6.23438 12.995 5.32029 13.3736 4.64634 14.0476C3.97238 14.7215 3.59375 15.6356 3.59375 16.5888V16.8763H0V25.5013H3.59375V25.875C3.61627 26.8131 4.00482 27.7052 4.67635 28.3606C5.34788 29.016 6.24914 29.3828 7.1875 29.3825L11.5 38.525C11.792 39.1407 12.2518 39.6615 12.8264 40.0276C13.4011 40.3938 14.0674 40.5904 14.7488 40.595H16.56C17.5081 40.5874 18.4148 40.2054 19.0826 39.5323C19.7504 38.8592 20.125 37.9494 20.125 37.0013V29.7275L37.605 36.7138C38.035 36.8849 38.4935 36.9727 38.9562 36.9725C39.6742 36.9609 40.3733 36.7412 40.9688 36.34C41.4416 36.0207 41.8317 35.5934 42.1066 35.0935C42.3816 34.5936 42.5336 34.0353 42.55 33.465V8.99875C42.5474 8.41374 42.402 7.83821 42.1264 7.32215C41.8508 6.80609 41.4534 6.36511 40.9688 6.0375ZM16.5312 16.5888V25.875H7.1875V16.5888H16.5312ZM16.5312 37.0013H14.72L11.1838 29.3825H16.5312V37.0013ZM21.1887 26.3063C20.8474 26.1318 20.4915 25.9875 20.125 25.875V16.3875C20.488 16.3126 20.8438 16.2068 21.1887 16.0713L38.9562 8.99875V33.3788L21.1887 26.3063ZM42.6362 17.595V24.7825C43.5894 24.7825 44.5035 24.4039 45.1774 23.7299C45.8514 23.056 46.23 22.1419 46.23 21.1888C46.23 20.2356 45.8514 19.3215 45.1774 18.6476C44.5035 17.9736 43.5894 17.595 42.6362 17.595Z" fill="#10BA21"/>
</g>
<defs>
<clipPath id="clip0_39_76">
<rect width="46" height="46" fill="white"/>
</clipPath>
</defs>
</svg>
