<svg width="47" height="45" viewBox="0 0 47 45" fill="none" xmlns="http://www.w3.org/2000/svg">
<path d="M9.375 8.5C10.8247 8.5 12 7.32475 12 5.875C12 4.42525 10.8247 3.25 9.375 3.25C7.92525 3.25 6.75 4.42525 6.75 5.875C6.75 7.32475 7.92525 8.5 9.375 8.5Z" stroke="#10BA21" stroke-width="2" stroke-miterlimit="10"/>
<path d="M4.125 17.25C4.125 17.25 5 13.4779 6.75 12.6029C8.5 11.7279 10.25 11.7279 12 12.6029C13.75 13.4779 14.625 17.25 14.625 17.25" stroke="#10BA21" stroke-width="2" stroke-miterlimit="10" stroke-linecap="round" stroke-linejoin="round"/>
<path d="M39.9932 16.6585C41.4429 16.6585 42.6182 15.4833 42.6182 14.0335C42.6182 12.5838 41.4429 11.4085 39.9932 11.4085C38.5434 11.4085 37.3682 12.5838 37.3682 14.0335C37.3682 15.4833 38.5434 16.6585 39.9932 16.6585Z" stroke="#10BA21" stroke-width="2" stroke-miterlimit="10"/>
<path d="M34.7432 25.4085C34.7432 25.4085 35.6182 21.6364 37.3682 20.7614C39.1182 19.8864 40.8682 19.8864 42.6182 20.7614C44.3682 21.6364 45.2432 25.4076 45.2432 25.4076" stroke="#10BA21" stroke-width="2" stroke-miterlimit="10" stroke-linecap="round" stroke-linejoin="round"/>
<path d="M17.2437 34.757C18.6934 34.757 19.8687 33.5817 19.8687 32.132C19.8687 30.6822 18.6934 29.507 17.2437 29.507C15.7939 29.507 14.6187 30.6822 14.6187 32.132C14.6187 33.5817 15.7939 34.757 17.2437 34.757Z" stroke="#10BA21" stroke-width="2" stroke-miterlimit="10"/>
<path d="M11.9939 43.507C11.9939 43.507 12.8689 39.7349 14.6189 38.8599C16.3689 37.9849 18.1189 37.9849 19.8689 38.8599C21.6189 39.7349 22.4939 43.5061 22.4939 43.5061M36.983 8.619C33.2914 4.26412 27.7806 1.5 21.625 1.5C19.2013 1.5 16.879 1.92875 14.7274 2.71363M25.5039 41.3764C32.6903 39.9729 38.5081 34.7465 40.7525 27.8996M1.57612 19.8645C1.52536 20.45 1.49996 21.0373 1.5 21.625C1.5 28.6022 5.05075 34.75 10.4443 38.3611" stroke="#10BA21" stroke-width="2" stroke-miterlimit="10" stroke-linecap="round" stroke-linejoin="round"/>
</svg>
