<svg width="48" height="48" viewBox="0 0 48 48" fill="none" xmlns="http://www.w3.org/2000/svg">
<path d="M24 45.5C35.8741 45.5 45.5 35.8741 45.5 24C45.5 12.1259 35.8741 2.5 24 2.5C12.1259 2.5 2.5 12.1259 2.5 24C2.5 35.8741 12.1259 45.5 24 45.5Z" stroke="#10BA21" stroke-width="2" stroke-linecap="round" stroke-linejoin="round"/>
<path d="M32.2803 29.7C33.3933 29.25 35.3723 28.652 35.9683 29.374C36.6123 30.155 35.7983 31.851 35.0483 33.168" stroke="#10BA21" stroke-width="2" stroke-linecap="round" stroke-linejoin="round"/>
<path d="M11.7979 30.223C13.5569 31.62 18.7519 33.758 24.2859 33.758C29.5619 33.758 32.7819 31.846 34.4529 30.678" stroke="#10BA21" stroke-width="2" stroke-linecap="round" stroke-linejoin="round"/>
<path d="M32.4017 13.075H15.5977C15.0454 13.075 14.5977 13.5227 14.5977 14.075V24.393C14.5977 24.9453 15.0454 25.393 15.5977 25.393H32.4017C32.9539 25.393 33.4017 24.9453 33.4017 24.393V14.075C33.4017 13.5227 32.9539 13.075 32.4017 13.075Z" stroke="#10BA21" stroke-width="2" stroke-linecap="round" stroke-linejoin="round"/>
<path d="M27.3269 13.075V11.168C27.3269 10.6906 27.1372 10.2328 26.7996 9.8952C26.4621 9.55764 26.0042 9.368 25.5269 9.368H22.4729C21.9955 9.368 21.5376 9.55764 21.2001 9.8952C20.8625 10.2328 20.6729 10.6906 20.6729 11.168V13.075" stroke="#10BA21" stroke-width="2" stroke-linecap="round" stroke-linejoin="round"/>
</svg>
