<svg width="37" height="37" viewBox="0 0 37 37" fill="none" xmlns="http://www.w3.org/2000/svg">
<path d="M18.5003 0.166664C20.9315 0.166664 23.2631 1.13243 24.9821 2.85152C26.7012 4.5706 27.667 6.90218 27.667 9.33333C27.667 11.7645 26.7012 14.0961 24.9821 15.8151C23.2631 17.5342 20.9315 18.5 18.5003 18.5C16.0692 18.5 13.7376 17.5342 12.0185 15.8151C10.2994 14.0961 9.33366 11.7645 9.33366 9.33333C9.33366 6.90218 10.2994 4.5706 12.0185 2.85152C13.7376 1.13243 16.0692 0.166664 18.5003 0.166664ZM18.5003 4.75C17.2847 4.75 16.119 5.23288 15.2594 6.09242C14.3999 6.95197 13.917 8.11776 13.917 9.33333C13.917 10.5489 14.3999 11.7147 15.2594 12.5742C16.119 13.4338 17.2847 13.9167 18.5003 13.9167C19.7159 13.9167 20.8817 13.4338 21.7412 12.5742C22.6008 11.7147 23.0837 10.5489 23.0837 9.33333C23.0837 8.11776 22.6008 6.95197 21.7412 6.09242C20.8817 5.23288 19.7159 4.75 18.5003 4.75ZM18.5003 20.7917C24.6191 20.7917 36.8337 23.8396 36.8337 29.9583V36.8333H0.166992V29.9583C0.166992 23.8396 12.3816 20.7917 18.5003 20.7917ZM18.5003 25.1458C11.6941 25.1458 4.52116 28.4917 4.52116 29.9583V32.4792H32.4795V29.9583C32.4795 28.4917 25.3066 25.1458 18.5003 25.1458Z" fill="#10BA21"/>
</svg>
