<svg width="36" height="36" viewBox="0 0 36 36" fill="none" xmlns="http://www.w3.org/2000/svg">
<circle cx="18" cy="18" r="18" fill="white"/>
<path fill-rule="evenodd" clip-rule="evenodd" d="M30 18.0725C30 11.4057 24.6268 6 18 6C11.3732 6 6 11.4057 6 18.0725C6 24.098 10.3875 29.0924 16.125 29.9989V21.5633H13.0773V18.0725H16.125V15.4128C16.125 12.3876 17.917 10.7153 20.6577 10.7153C21.9707 10.7153 23.3443 10.9513 23.3443 10.9513V13.9226H21.8304C20.3405 13.9226 19.8745 14.8528 19.8745 15.8089V18.0725H23.2023L22.6709 21.5633H19.875V30C25.6125 29.094 30 24.0996 30 18.0725Z" fill="#010216"/>
</svg>
