<svg width="36" height="36" viewBox="0 0 36 36" fill="none" xmlns="http://www.w3.org/2000/svg">
<circle cx="18" cy="18" r="18" fill="white"/>
<path fill-rule="evenodd" clip-rule="evenodd" d="M11.2308 10C10.9043 10 10.5913 10.1297 10.3605 10.3605C10.1297 10.5913 10 10.9043 10 11.2308V24.7692C10 25.0957 10.1297 25.4087 10.3605 25.6395C10.5913 25.8703 10.9043 26 11.2308 26H24.7692C25.0957 26 25.4087 25.8703 25.6395 25.6395C25.8703 25.4087 26 25.0957 26 24.7692V11.2308C26 10.9043 25.8703 10.5913 25.6395 10.3605C25.4087 10.1297 25.0957 10 24.7692 10H11.2308ZM12.5231 16.1538H14.8615V23.5385H12.5231V16.1538ZM15.0154 13.6985C15.0154 14.0494 14.876 14.3859 14.6279 14.634C14.3797 14.8821 14.0432 15.0215 13.6923 15.0215C13.3414 15.0215 13.0049 14.8821 12.7568 14.634C12.5086 14.3859 12.3692 14.0494 12.3692 13.6985C12.3692 13.3476 12.5086 13.011 12.7568 12.7629C13.0049 12.5148 13.3414 12.3754 13.6923 12.3754C14.0432 12.3754 14.3797 12.5148 14.6279 12.7629C14.876 13.011 15.0154 13.3476 15.0154 13.6985ZM23.5385 19.0548C23.5385 16.8332 22.1022 15.9692 20.6757 15.9692C20.2095 15.9466 19.7453 16.0445 19.328 16.2535C19.0117 16.4135 18.6806 16.7754 18.4246 17.408H18.3594V16.1538H16.1538V23.5446H18.4997V19.6123C18.4665 19.2098 18.5945 18.6892 18.8578 18.3803C19.1225 18.0702 19.4978 17.9963 19.7846 17.9594H19.8745C20.6203 17.9594 21.1742 18.4209 21.1742 19.584V23.5434H23.52L23.5385 19.0548Z" fill="black"/>
</svg>
