<svg width="17" height="17" viewBox="0 0 17 17" fill="none" xmlns="http://www.w3.org/2000/svg">
<path d="M0.00121388 0.607013C0.00121388 0.446023 0.0651637 0.291627 0.178995 0.17779C0.292826 0.0639528 0.447214 0 0.608196 0H1.13991C2.02246 0 2.5299 0.574234 2.82368 1.14725C3.02399 1.53938 3.16845 2.01771 3.28863 2.43291H15.7864C15.974 2.43296 16.159 2.47649 16.3269 2.56007C16.4948 2.64365 16.6411 2.76501 16.7543 2.91463C16.8674 3.06424 16.9444 3.23805 16.9791 3.4224C17.0137 3.60675 17.0053 3.79663 16.9542 3.97715L15.1381 10.3811C14.9937 10.8892 14.6875 11.3363 14.266 11.6547C13.8445 11.973 13.3307 12.1452 12.8025 12.1451H6.63674C6.10415 12.1453 5.58627 11.9703 5.16289 11.6472C4.73951 11.324 4.43413 10.8707 4.29379 10.3569L3.51443 7.49782C3.50996 7.48501 3.50591 7.47205 3.50229 7.45897L2.25069 3.21353L2.12929 2.8044C2.0079 2.38435 1.90107 2.01285 1.74082 1.70085C1.5478 1.3245 1.37057 1.21524 1.1387 1.21524H0.606982C0.446001 1.21524 0.291612 1.15129 0.177781 1.03745C0.0639496 0.923612 0 0.769216 0 0.608227L0.00121388 0.607013ZM4.67255 7.13119L5.46527 10.04C5.53555 10.2968 5.68829 10.5233 5.89997 10.6848C6.11165 10.8462 6.37053 10.9336 6.63674 10.9335H12.8037C13.0677 10.9332 13.3243 10.8469 13.5349 10.6877C13.7454 10.5284 13.8982 10.3049 13.9703 10.0509L15.7864 3.64693H3.64675L4.67255 7.13119ZM8.50261 15.179C8.50261 15.6619 8.31076 16.1251 7.96926 16.4666C7.62777 16.8081 7.16461 17 6.68166 17C6.19872 17 5.73555 16.8081 5.39406 16.4666C5.05256 16.1251 4.86071 15.6619 4.86071 15.179C4.86071 14.696 5.05256 14.2328 5.39406 13.8913C5.73555 13.5498 6.19872 13.3579 6.68166 13.3579C7.16461 13.3579 7.62777 13.5498 7.96926 13.8913C8.31076 14.2328 8.50261 14.696 8.50261 15.179ZM7.28864 15.179C7.28864 15.018 7.22469 14.8636 7.11086 14.7497C6.99703 14.6359 6.84264 14.5719 6.68166 14.5719C6.52068 14.5719 6.36629 14.6359 6.25246 14.7497C6.13863 14.8636 6.07468 15.018 6.07468 15.179C6.07468 15.3399 6.13863 15.4943 6.25246 15.6082C6.36629 15.722 6.52068 15.786 6.68166 15.786C6.84264 15.786 6.99703 15.722 7.11086 15.6082C7.22469 15.4943 7.28864 15.3399 7.28864 15.179ZM14.5724 15.179C14.5724 15.6619 14.3806 16.1251 14.0391 16.4666C13.6976 16.8081 13.2344 17 12.7515 17C12.2685 17 11.8054 16.8081 11.4639 16.4666C11.1224 16.1251 10.9305 15.6619 10.9305 15.179C10.9305 14.696 11.1224 14.2328 11.4639 13.8913C11.8054 13.5498 12.2685 13.3579 12.7515 13.3579C13.2344 13.3579 13.6976 13.5498 14.0391 13.8913C14.3806 14.2328 14.5724 14.696 14.5724 15.179ZM13.3585 15.179C13.3585 15.018 13.2945 14.8636 13.1807 14.7497C13.0669 14.6359 12.9125 14.5719 12.7515 14.5719C12.5905 14.5719 12.4361 14.6359 12.3223 14.7497C12.2085 14.8636 12.1445 15.018 12.1445 15.179C12.1445 15.3399 12.2085 15.4943 12.3223 15.6082C12.4361 15.722 12.5905 15.786 12.7515 15.786C12.9125 15.786 13.0669 15.722 13.1807 15.6082C13.2945 15.4943 13.3585 15.3399 13.3585 15.179Z" fill="#040A16"/>
</svg>
