<svg width="122" height="164" viewBox="0 0 122 164" fill="none" xmlns="http://www.w3.org/2000/svg">
<path d="M51.9323 29.1412C68.5874 100.498 27.9803 107.986 17.0941 107.986C6.20801 107.986 -1.08897 73.7585 0.133425 58.7842C4.71739 29.1411 61.7114 -3.25153 59.8778 0.262669C56.8218 11.7228 51.9323 14.9639 51.9323 29.1412Z" fill="#10BA21"/>
<path d="M23.073 107.418C20.4903 108.087 18.9811 108.169 16.197 107.876C12.9318 58.7595 19.3961 58.5463 37.8945 31.6294C26.4035 67.1147 22.0758 70.3056 23.073 107.418Z" fill="white" stroke="white"/>
<path d="M18.489 132.171L15.1274 134.463C12.5987 124.873 11.424 117.895 12.2242 100.694H15.433C16.3498 113.071 16.0442 119.489 18.489 132.171Z" fill="#10BA21" stroke="#10BA21"/>
<path d="M99.3822 109.382C62.3181 152.951 38.7739 130.935 33.722 124.101C28.6702 117.268 46.7693 96.8038 56.7364 90.6221C77.4715 79.7434 124.254 100.488 121.197 100.968C112.585 104.368 108.282 102.803 99.3822 109.382Z" fill="#10BA21"/>
<path d="M36.853 127.591C35.2345 126.28 34.4827 125.371 33.3744 123.487C62.6911 98.6444 65.8249 102.603 91.3058 101.724C63.6981 110.978 59.6867 109.743 36.853 127.591Z" fill="white" stroke="white"/>
<path d="M19.1876 136.201L16.1889 135.154C21.0354 129.116 24.8706 125.141 36.0392 117.661L37.5283 119.675C30.1845 125.994 26.0141 128.78 19.1876 136.201Z" fill="#10BA21" stroke="#10BA21"/>
</svg>
