<svg width="55" height="55" viewBox="0 0 55 55" fill="none" xmlns="http://www.w3.org/2000/svg">
<path d="M37.0734 47.6953C34.083 49.1182 30.8116 49.8524 27.4999 49.8438C15.1799 49.8438 5.15618 39.82 5.15618 27.5C5.15618 22.2148 6.97289 17.2236 10.3124 13.2206V17.1875H13.7499V6.875H3.43743V10.3125H8.32211C4.06075 15.0215 1.70651 21.1491 1.71867 27.5C1.71867 41.7158 13.2841 53.2813 27.4999 53.2813C31.323 53.291 35.0996 52.4428 38.5515 50.7994L37.0734 47.6953Z" fill="#00AC57"/>
<path d="M36.0938 15.4688C30.6625 15.4688 26.2092 19.6917 25.8191 25.025C23.9295 23.301 21.4641 22.3448 18.9062 22.3438H12.0312V29.2188C12.0312 34.9061 16.6581 39.5312 22.3438 39.5312H25.7812V46.4062H29.2188V32.6562H32.6562C38.3419 32.6562 42.9688 28.0311 42.9688 22.3438V15.4688H36.0938ZM22.3438 36.0938C18.5522 36.0938 15.4688 33.0103 15.4688 29.2188V25.7812H18.9062C22.6978 25.7812 25.7812 28.8647 25.7812 32.6562V33.6634L21.8402 29.7223L19.4098 32.1527L23.3509 36.0938H22.3438ZM39.5312 22.3438C39.5312 26.1353 36.4478 29.2188 32.6562 29.2188H31.6491L35.5902 25.2777L33.1598 22.8473L29.2188 26.7884V25.7812C29.2188 21.9897 32.3022 18.9062 36.0938 18.9062H39.5312V22.3438Z" fill="#00AC57"/>
<path d="M53.2812 27.5001C53.2812 13.2843 41.7157 1.71883 27.4999 1.71883C23.6768 1.70912 19.9002 2.55724 16.4484 4.20071L17.9265 7.30477C20.9169 5.88184 24.1883 5.14768 27.4999 5.15633C39.8199 5.15633 49.8437 15.1801 49.8437 27.5001C49.8437 32.7852 48.027 37.7765 44.6874 41.7795V37.8126H41.2499V48.1251H51.5624V44.6876H46.6777C50.9391 39.9786 53.2933 33.851 53.2812 27.5001Z" fill="#00AC57"/>
</svg>
