<svg width="54" height="54" viewBox="0 0 54 54" fill="none" xmlns="http://www.w3.org/2000/svg">
<path fill-rule="evenodd" clip-rule="evenodd" d="M27.7984 1.84345C27.5477 1.72941 27.2754 1.67041 27 1.67041C26.7245 1.67041 26.4523 1.72941 26.2016 1.84345L16.0843 6.44888L26.9923 11.4169L37.908 6.44502L27.7984 1.84345ZM14.2714 21.6383V9.85859L25.0714 14.7764V27.7943L15.3938 23.3933C15.0569 23.2401 14.7712 22.9931 14.5708 22.6819C14.3704 22.3707 14.2638 22.0084 14.2637 21.6383H14.2714ZM28.9286 47.5274V34.6446L39.1577 39.304V52.3219L29.4917 47.9209C29.2806 47.8249 29.0924 47.6916 28.9286 47.5274ZM43.0148 52.3296V39.304L53.8264 34.3823V46.1659C53.8263 46.536 53.7197 46.8983 53.5193 47.2095C53.3189 47.5207 53.0332 47.7676 52.6963 47.9209L43.0148 52.3296ZM25.0637 34.6446V47.5429C24.9033 47.7 24.7166 47.828 24.5121 47.9209L14.8307 52.3296V39.304L25.0637 34.6446ZM10.9736 39.304V52.3219L1.31142 47.9209C0.974492 47.7676 0.688779 47.5207 0.488384 47.2095C0.287989 46.8983 0.181377 46.536 0.181274 46.1659V34.3862L10.9813 39.304H10.9736ZM28.9208 27.802V14.7726L39.7324 9.85088V21.6383C39.7323 22.0084 39.6257 22.3707 39.4253 22.6819C39.2249 22.9931 38.9392 23.2401 38.6023 23.3933L28.9208 27.802ZM40.2917 26.3749C40.5424 26.2608 40.8147 26.2018 41.0901 26.2018C41.3656 26.2018 41.6378 26.2608 41.8886 26.3749L51.9943 30.9726L41.0786 35.9444L30.1821 30.9726L40.2956 26.3672L40.2917 26.3749ZM12.1114 26.3749C12.3621 26.2608 12.6344 26.2018 12.9098 26.2018C13.1853 26.2018 13.4575 26.2608 13.7083 26.3749L23.814 30.9726L12.9021 35.9483L1.99799 30.9726L12.1114 26.3749Z" fill="#00AC57"/>
</svg>
