<svg width="55" height="55" viewBox="0 0 55 55" fill="none" xmlns="http://www.w3.org/2000/svg">
<path d="M27.5 9.1665C29.9311 9.1665 32.2627 10.1323 33.9818 11.8514C35.7009 13.5704 36.6666 15.902 36.6666 18.3332C36.6666 20.7643 35.7009 23.0959 33.9818 24.815C32.2627 26.5341 29.9311 27.4998 27.5 27.4998C25.0688 27.4998 22.7372 26.5341 21.0181 24.815C19.2991 23.0959 18.3333 20.7643 18.3333 18.3332C18.3333 15.902 19.2991 13.5704 21.0181 11.8514C22.7372 10.1323 25.0688 9.1665 27.5 9.1665ZM27.5 13.7498C26.2844 13.7498 25.1186 14.2327 24.2591 15.0923C23.3995 15.9518 22.9166 17.1176 22.9166 18.3332C22.9166 19.5487 23.3995 20.7145 24.2591 21.5741C25.1186 22.4336 26.2844 22.9165 27.5 22.9165C28.7155 22.9165 29.8813 22.4336 30.7409 21.5741C31.6004 20.7145 32.0833 19.5487 32.0833 18.3332C32.0833 17.1176 31.6004 15.9518 30.7409 15.0923C29.8813 14.2327 28.7155 13.7498 27.5 13.7498ZM27.5 29.7915C33.6187 29.7915 45.8333 32.8394 45.8333 38.9582V45.8332H9.16663V38.9582C9.16663 32.8394 21.3812 29.7915 27.5 29.7915ZM27.5 34.1457C20.6937 34.1457 13.5208 37.4915 13.5208 38.9582V41.479H41.4791V38.9582C41.4791 37.4915 34.3062 34.1457 27.5 34.1457Z" fill="#00AC57"/>
</svg>
