<svg width="48" height="48" viewBox="0 0 48 48" fill="none" xmlns="http://www.w3.org/2000/svg">
<g clip-path="url(#clip0_653_2173)">
<path d="M4.6243e-06 19.4998C-0.00303311 15.0871 1.49065 10.8039 4.23697 7.35004C6.98329 3.89618 10.8199 1.47589 15.1197 0.484682C19.4196 -0.506527 23.9286 -0.0100464 27.9097 1.89299C31.8909 3.79603 35.109 6.9931 37.038 10.9618C39.8303 12.323 42.2569 14.3316 44.1159 16.8203C45.9749 19.309 47.2124 22.2059 47.7254 25.2696C48.2384 28.3334 48.012 31.4753 47.0651 34.4339C46.1182 37.3924 44.4782 40.0819 42.2817 42.2785C40.0852 44.475 37.3956 46.115 34.4371 47.0619C31.4785 48.0088 28.3366 48.2351 25.2729 47.7222C22.2091 47.2092 19.3123 45.9716 16.8235 44.1127C14.3348 42.2537 12.3262 39.827 10.965 37.0348C7.67698 35.4342 4.9053 32.9412 2.96642 29.8406C1.02755 26.74 -0.000382809 23.1567 4.6243e-06 19.4998ZM15.432 38.5738C16.8642 40.4312 18.6759 41.9619 20.7463 43.0638C22.8167 44.1658 25.0983 44.8137 27.4389 44.9643C29.7795 45.115 32.1253 44.7649 34.3199 43.9374C36.5145 43.11 38.5075 41.8241 40.1659 40.1657C41.8244 38.5072 43.1102 36.5142 43.9377 34.3196C44.7651 32.125 45.1152 29.7792 44.9646 27.4386C44.8139 25.0981 44.166 22.8165 43.0641 20.7461C41.9621 18.6757 40.4314 16.8639 38.574 15.4318C39.2533 18.6131 39.1259 21.9138 38.2034 25.0333C37.2809 28.1528 35.5927 30.992 33.2925 33.2922C30.9922 35.5925 28.153 37.2807 25.0335 38.2032C21.914 39.1257 18.6133 39.2531 15.432 38.5738ZM13.233 34.7668C14.325 35.2188 15.469 35.5488 16.665 35.7568L12.243 31.3348C12.451 32.5288 12.781 33.6728 13.233 34.7668ZM21.075 35.9248C22.2709 35.8116 23.4509 35.5681 24.594 35.1988L13.122 23.7298C12.7187 24.8166 12.4213 25.9398 12.234 27.0838L21.075 35.9248ZM27.546 33.9088C28.438 33.4088 29.276 32.8328 30.06 32.1808L16.254 18.3778C15.5982 19.1526 15.0091 19.9816 14.493 20.8558L27.546 33.9088ZM32.181 30.0568C32.831 29.2768 33.407 28.4398 33.909 27.5458L20.859 14.4898C19.9838 15.0057 19.1538 15.5948 18.378 16.2508L32.178 30.0568H32.181ZM35.199 24.5908C35.565 23.4668 35.807 22.2948 35.925 21.0748L27.084 12.2338C25.924 12.4258 24.806 12.7218 23.73 13.1218L35.199 24.5938V24.5908ZM35.757 16.6648C35.5522 15.4883 35.2202 14.3376 34.767 13.2328C33.6622 12.7796 32.5115 12.4476 31.335 12.2428L35.757 16.6648Z" fill="#00AC57"/>
</g>
<defs>
<clipPath id="clip0_653_2173">
<rect width="48" height="48" fill="white"/>
</clipPath>
</defs>
</svg>
