<svg width="48" height="48" viewBox="0 0 48 48" fill="none" xmlns="http://www.w3.org/2000/svg">
<path d="M24 45.5C35.8741 45.5 45.5 35.8741 45.5 24C45.5 12.1259 35.8741 2.5 24 2.5C12.1259 2.5 2.5 12.1259 2.5 24C2.5 35.8741 12.1259 45.5 24 45.5Z" stroke="#00AC57" stroke-width="2" stroke-linecap="round" stroke-linejoin="round"/>
<path d="M32.28 29.7C33.393 29.25 35.372 28.652 35.968 29.374C36.612 30.155 35.798 31.851 35.048 33.168" stroke="#00AC57" stroke-width="2" stroke-linecap="round" stroke-linejoin="round"/>
<path d="M11.798 30.2231C13.557 31.6201 18.752 33.7581 24.286 33.7581C29.562 33.7581 32.782 31.8461 34.453 30.6781" stroke="#00AC57" stroke-width="2" stroke-linecap="round" stroke-linejoin="round"/>
<path d="M32.402 13.0752H15.598C15.0457 13.0752 14.598 13.5229 14.598 14.0752V24.3932C14.598 24.9455 15.0457 25.3932 15.598 25.3932H32.402C32.9543 25.3932 33.402 24.9455 33.402 24.3932V14.0752C33.402 13.5229 32.9543 13.0752 32.402 13.0752Z" stroke="#00AC57" stroke-width="2" stroke-linecap="round" stroke-linejoin="round"/>
<path d="M27.327 13.0752V11.1682C27.327 10.6908 27.1373 10.2329 26.7998 9.89537C26.4622 9.55781 26.0044 9.36816 25.527 9.36816H22.473C21.9956 9.36816 21.5377 9.55781 21.2002 9.89537C20.8626 10.2329 20.673 10.6908 20.673 11.1682V13.0752" stroke="#00AC57" stroke-width="2" stroke-linecap="round" stroke-linejoin="round"/>
</svg>
